<svg width="56" height="48" viewBox="0 0 56 48" fill="none" xmlns="http://www.w3.org/2000/svg">
<path d="M0 20C0 8.95431 8.95431 0 20 0H56V28C56 39.0457 47.0457 48 36 48H0V20Z" fill="#4177DC"/>
<path d="M36 34H20C19.7348 34 19.4804 33.8946 19.2929 33.7071C19.1054 33.5196 19 33.2652 19 33V15C19 14.7348 19.1054 14.4804 19.2929 14.2929C19.4804 14.1054 19.7348 14 20 14H36C36.2652 14 36.5196 14.1054 36.7071 14.2929C36.8946 14.4804 37 14.7348 37 15V33C37 33.2652 36.8946 33.5196 36.7071 33.7071C36.5196 33.8946 36.2652 34 36 34ZM35 32V16H21V32H35ZM25 18V20C25 20.7956 25.3161 21.5587 25.8787 22.1213C26.4413 22.6839 27.2044 23 28 23C28.7956 23 29.5587 22.6839 30.1213 22.1213C30.6839 21.5587 31 20.7956 31 20V18H33V20C33 21.3261 32.4732 22.5979 31.5355 23.5355C30.5979 24.4732 29.3261 25 28 25C26.6739 25 25.4021 24.4732 24.4645 23.5355C23.5268 22.5979 23 21.3261 23 20V18H25Z" fill="white"/>
</svg>
