<svg width="122" height="122" viewBox="0 0 122 122" fill="none" xmlns="http://www.w3.org/2000/svg">
<g filter="url(#filter0_d_122_50)">
<circle cx="61" cy="61" r="44" stroke="#02DB8A" stroke-width="2" shape-rendering="crispEdges"/>
</g>
<circle cx="61" cy="61" r="34" stroke="#099260" stroke-width="2"/>
<path d="M44.004 66.084C43.78 66.084 43.5233 66.0747 43.234 66.056C42.954 66.0467 42.6647 66.028 42.366 66C42.0767 65.972 41.7967 65.944 41.526 65.916C41.2647 65.888 41.0407 65.8507 40.854 65.804V64.712C41.0967 64.7307 41.386 64.7493 41.722 64.768C42.0673 64.7867 42.4313 64.8007 42.814 64.81C43.206 64.8193 43.584 64.824 43.948 64.824C44.3493 64.824 44.704 64.7867 45.012 64.712C45.3293 64.6373 45.5767 64.4973 45.754 64.292C45.9407 64.0867 46.034 63.7973 46.034 63.424V62.822C46.034 62.402 45.9173 62.08 45.684 61.856C45.46 61.632 45.1147 61.52 44.648 61.52H43.598C42.702 61.52 42.0067 61.324 41.512 60.932C41.0267 60.54 40.784 59.868 40.784 58.916V58.356C40.784 57.3667 41.05 56.662 41.582 56.242C42.1233 55.8127 42.8887 55.598 43.878 55.598C44.2047 55.598 44.5547 55.6167 44.928 55.654C45.3013 55.682 45.6653 55.7193 46.02 55.766C46.3747 55.8127 46.6687 55.8593 46.902 55.906V56.998C46.482 56.97 46.0107 56.942 45.488 56.914C44.9747 56.8767 44.4893 56.858 44.032 56.858C43.64 56.858 43.2993 56.9047 43.01 56.998C42.73 57.082 42.5107 57.236 42.352 57.46C42.2027 57.684 42.128 58.0013 42.128 58.412V58.832C42.128 59.336 42.2633 59.686 42.534 59.882C42.8047 60.078 43.1827 60.176 43.668 60.176H44.802C45.39 60.176 45.8707 60.2833 46.244 60.498C46.6267 60.7127 46.9113 61.0067 47.098 61.38C47.2847 61.7533 47.378 62.178 47.378 62.654V63.382C47.378 64.11 47.2287 64.67 46.93 65.062C46.6313 65.454 46.23 65.7247 45.726 65.874C45.222 66.014 44.648 66.084 44.004 66.084ZM51.4524 66V56.942H48.3724V55.682H55.9464V56.942H52.8664V66H51.4524ZM55.8826 66L59.3266 55.682H61.1186L64.5626 66H63.0926L62.1826 63.298H58.2346L57.3386 66H55.8826ZM58.5706 62.024H61.8326L60.2086 56.914L58.5706 62.024ZM65.9868 66V55.682H70.1168C70.4715 55.682 70.8122 55.724 71.1388 55.808C71.4748 55.892 71.7735 56.046 72.0348 56.27C72.2962 56.494 72.5015 56.8113 72.6508 57.222C72.8002 57.6233 72.8748 58.1507 72.8748 58.804C72.8748 59.336 72.8188 59.7793 72.7068 60.134C72.5948 60.4887 72.4455 60.7733 72.2588 60.988C72.0815 61.1933 71.8808 61.352 71.6568 61.464C71.4422 61.5667 71.2275 61.646 71.0128 61.702L73.0708 66H71.6428L69.7388 61.898C69.5988 61.898 69.4262 61.898 69.2208 61.898C69.0248 61.8887 68.8148 61.884 68.5908 61.884C68.3762 61.884 68.1615 61.8793 67.9468 61.87C67.7415 61.8607 67.5595 61.856 67.4008 61.856V66H65.9868ZM67.4008 60.764H69.8928C70.1168 60.764 70.3222 60.7407 70.5088 60.694C70.6955 60.638 70.8588 60.54 70.9988 60.4C71.1482 60.2507 71.2648 60.05 71.3488 59.798C71.4328 59.5367 71.4748 59.2053 71.4748 58.804C71.4748 58.412 71.4328 58.0947 71.3488 57.852C71.2648 57.6093 71.1482 57.4227 70.9988 57.292C70.8495 57.1613 70.6815 57.0727 70.4948 57.026C70.3082 56.97 70.1075 56.942 69.8928 56.942H67.4008V60.764ZM76.8685 66V56.942H73.7885V55.682H81.3625V56.942H78.2825V66H76.8685Z" fill="white"/>
<defs>
<filter id="filter0_d_122_50" x="0" y="0" width="122" height="122" filterUnits="userSpaceOnUse" color-interpolation-filters="sRGB">
<feFlood flood-opacity="0" result="BackgroundImageFix"/>
<feColorMatrix in="SourceAlpha" type="matrix" values="0 0 0 0 0 0 0 0 0 0 0 0 0 0 0 0 0 0 127 0" result="hardAlpha"/>
<feOffset/>
<feGaussianBlur stdDeviation="8"/>
<feComposite in2="hardAlpha" operator="out"/>
<feColorMatrix type="matrix" values="0 0 0 0 0.00784314 0 0 0 0 0.858824 0 0 0 0 0.541176 0 0 0 1 0"/>
<feBlend mode="normal" in2="BackgroundImageFix" result="effect1_dropShadow_122_50"/>
<feBlend mode="normal" in="SourceGraphic" in2="effect1_dropShadow_122_50" result="shape"/>
</filter>
</defs>
</svg>
