<svg width="17" height="16" viewBox="0 0 17 16" fill="none" xmlns="http://www.w3.org/2000/svg">
<path d="M3.16668 3.33333V12.6667H13.8333V3.33333H3.16668ZM2.50001 2H14.5C14.6768 2 14.8464 2.07024 14.9714 2.19526C15.0964 2.32029 15.1667 2.48986 15.1667 2.66667V13.3333C15.1667 13.5101 15.0964 13.6797 14.9714 13.8047C14.8464 13.9298 14.6768 14 14.5 14H2.50001C2.3232 14 2.15363 13.9298 2.02861 13.8047C1.90358 13.6797 1.83334 13.5101 1.83334 13.3333V2.66667C1.83334 2.48986 1.90358 2.32029 2.02861 2.19526C2.15363 2.07024 2.3232 2 2.50001 2ZM10.362 6.52867L9.16668 5.33333H12.5V8.66667L11.3047 7.47133L8.72868 10.0473L7.31468 8.63333L5.42868 10.5187L4.48601 9.576L7.31468 6.74733L8.72868 8.162L10.362 6.52867Z" fill="white"/>
</svg>
