<svg width="110" height="34" viewBox="0 0 110 34" fill="none" xmlns="http://www.w3.org/2000/svg">
<path d="M45.76 25.12C45.376 25.12 44.944 25.08 44.464 25C44 24.936 43.552 24.784 43.12 24.544C42.688 24.288 42.336 23.912 42.064 23.416C41.792 22.92 41.656 22.24 41.656 21.376V11.152C41.656 10.4 41.768 9.776 41.992 9.28C42.216 8.768 42.512 8.368 42.88 8.08C43.264 7.792 43.68 7.592 44.128 7.48C44.592 7.352 45.048 7.288 45.496 7.288C46.616 7.288 47.624 7.304 48.52 7.336C49.416 7.368 50.232 7.4 50.968 7.432C51.72 7.464 52.416 7.504 53.056 7.552V10.024H46.36C45.816 10.024 45.384 10.16 45.064 10.432C44.76 10.704 44.608 11.128 44.608 11.704V14.848L51.976 15.016V17.344L44.608 17.512V20.56C44.608 21.04 44.688 21.408 44.848 21.664C45.024 21.92 45.24 22.096 45.496 22.192C45.768 22.288 46.048 22.336 46.336 22.336H53.056V24.808C52.352 24.872 51.584 24.928 50.752 24.976C49.92 25.008 49.072 25.032 48.208 25.048C47.36 25.08 46.544 25.104 45.76 25.12ZM59.578 25.048C58.73 25.048 58.018 24.904 57.442 24.616C56.882 24.328 56.458 23.88 56.17 23.272C55.898 22.664 55.762 21.856 55.762 20.848V6.688H58.738V20.44C58.738 21.016 58.794 21.464 58.906 21.784C59.034 22.104 59.21 22.336 59.434 22.48C59.658 22.608 59.93 22.696 60.25 22.744L61.33 22.888V25.048H59.578ZM68.3539 25.12C66.9619 25.12 65.8499 24.928 65.0179 24.544C64.2019 24.16 63.6099 23.496 63.2419 22.552C62.8739 21.592 62.6899 20.264 62.6899 18.568C62.6899 16.84 62.8659 15.504 63.2179 14.56C63.5699 13.6 64.1539 12.928 64.9699 12.544C65.7859 12.16 66.8899 11.968 68.2819 11.968C69.5139 11.968 70.4979 12.096 71.2339 12.352C71.9859 12.592 72.5299 13.032 72.8659 13.672C73.2179 14.296 73.3939 15.184 73.3939 16.336C73.3939 17.152 73.2339 17.808 72.9139 18.304C72.5939 18.784 72.1299 19.128 71.5219 19.336C70.9299 19.544 70.2259 19.648 69.4099 19.648H65.6419C65.6739 20.448 65.7779 21.088 65.9539 21.568C66.1459 22.032 66.4819 22.368 66.9619 22.576C67.4579 22.784 68.1779 22.888 69.1219 22.888H73.0099V24.64C72.3539 24.768 71.6579 24.88 70.9219 24.976C70.2019 25.072 69.3459 25.12 68.3539 25.12ZM65.6179 17.848H69.1219C69.6819 17.848 70.0899 17.744 70.3459 17.536C70.6179 17.312 70.7539 16.912 70.7539 16.336C70.7539 15.776 70.6739 15.336 70.5139 15.016C70.3539 14.696 70.0899 14.472 69.7219 14.344C69.3539 14.2 68.8739 14.128 68.2819 14.128C67.6099 14.128 67.0819 14.232 66.6979 14.44C66.3139 14.648 66.0339 15.024 65.8579 15.568C65.6979 16.096 65.6179 16.856 65.6179 17.848ZM80.9554 25.144C80.1874 25.144 79.4754 25.048 78.8194 24.856C78.1794 24.648 77.6194 24.304 77.1394 23.824C76.6594 23.328 76.2834 22.656 76.0114 21.808C75.7554 20.96 75.6274 19.896 75.6274 18.616C75.6274 17.304 75.7474 16.216 75.9874 15.352C76.2434 14.488 76.6034 13.808 77.0674 13.312C77.5314 12.816 78.0914 12.472 78.7474 12.28C79.4194 12.072 80.1794 11.968 81.0274 11.968C81.7474 11.968 82.4754 12.008 83.2114 12.088C83.9474 12.152 84.6834 12.28 85.4194 12.472V14.176H81.9154C81.1474 14.176 80.5234 14.296 80.0434 14.536C79.5634 14.776 79.2034 15.216 78.9634 15.856C78.7234 16.496 78.6034 17.416 78.6034 18.616C78.6034 19.8 78.7234 20.704 78.9634 21.328C79.2034 21.936 79.5634 22.352 80.0434 22.576C80.5394 22.784 81.1714 22.888 81.9394 22.888H85.6114V24.568C85.2274 24.68 84.7794 24.784 84.2674 24.88C83.7554 24.96 83.2114 25.024 82.6354 25.072C82.0754 25.12 81.5154 25.144 80.9554 25.144ZM90.4651 25.144C89.5051 25.144 88.7211 24.856 88.1131 24.28C87.5051 23.704 87.2011 22.912 87.2011 21.904V20.824C87.2011 19.832 87.5371 19.024 88.2091 18.4C88.8971 17.776 89.9451 17.464 91.3531 17.464H95.0251V16.336C95.0251 15.888 94.9451 15.512 94.7851 15.208C94.6251 14.904 94.3371 14.68 93.9211 14.536C93.5051 14.376 92.8731 14.296 92.0251 14.296H88.1371V12.568C88.7291 12.408 89.4251 12.272 90.2251 12.16C91.0251 12.032 91.9771 11.968 93.0811 11.968C94.1371 11.952 95.0331 12.08 95.7691 12.352C96.5051 12.608 97.0571 13.04 97.4251 13.648C97.8091 14.256 98.0011 15.088 98.0011 16.144V25H95.6731L95.1691 23.608C95.0571 23.704 94.8571 23.832 94.5691 23.992C94.2811 24.152 93.9211 24.328 93.4891 24.52C93.0571 24.696 92.5771 24.848 92.0491 24.976C91.5371 25.088 91.0091 25.144 90.4651 25.144ZM91.9051 23.056C92.1131 23.056 92.3451 23.032 92.6011 22.984C92.8731 22.92 93.1451 22.856 93.4171 22.792C93.6891 22.712 93.9371 22.64 94.1611 22.576C94.4011 22.496 94.5931 22.424 94.7371 22.36C94.8971 22.296 94.9931 22.256 95.0251 22.24V18.88L92.2411 19.024C91.5051 19.088 90.9691 19.28 90.6331 19.6C90.3131 19.92 90.1531 20.344 90.1531 20.872V21.4C90.1531 21.8 90.2331 22.128 90.3931 22.384C90.5691 22.624 90.7851 22.792 91.0411 22.888C91.3131 22.984 91.6011 23.04 91.9051 23.056ZM100.95 25V12.136H103.254L103.926 14.2C104.438 13.576 105.006 13.048 105.63 12.616C106.254 12.184 106.998 11.968 107.862 11.968C108.038 11.968 108.222 11.984 108.414 12.016C108.606 12.032 108.782 12.064 108.942 12.112V15.136C108.718 15.104 108.478 15.08 108.222 15.064C107.966 15.048 107.718 15.04 107.478 15.04C106.982 15.04 106.526 15.096 106.11 15.208C105.71 15.32 105.334 15.496 104.982 15.736C104.63 15.96 104.278 16.248 103.926 16.6V25H100.95Z" fill="white"/>
<path d="M29.0667 19.6681C28.5144 22.365 27.1417 24.8251 25.1366 26.7113C23.1316 28.5975 20.5922 29.8175 17.8667 30.2041V27.5041C19.8797 27.1451 21.7474 26.2157 23.2478 24.8264C24.7482 23.4371 25.8182 21.6463 26.3307 19.6667L29.0667 19.6681ZM5.66933 19.6681C6.17628 21.6248 7.22809 23.3974 8.70252 24.78C10.177 26.1626 12.0135 27.0985 13.9987 27.4787V30.1854C11.2999 29.7742 8.7921 28.5453 6.81349 26.6645C4.83488 24.7836 3.48062 22.3413 2.93333 19.6667H5.66933V19.6681ZM24 15.6667V18.3334H22.6667C21.2983 18.3334 19.9824 18.8593 18.9909 19.8024C17.9995 20.7454 17.4084 22.0335 17.34 23.4001L17.3333 23.6667V25.0001H14.6667V23.6667C14.6667 22.2984 14.1407 20.9824 13.1977 19.991C12.2546 18.9996 10.9666 18.4085 9.59999 18.3401L9.33333 18.3334H7.99999V15.6667H24ZM16 3.66675C22.9133 3.66675 28.5987 8.92941 29.2667 15.6667H26.584C26.2586 13.0893 25.0039 10.7191 23.0552 9.00098C21.1066 7.28285 18.5979 6.33485 16 6.33485C13.4021 6.33485 10.8934 7.28285 8.94476 9.00098C6.9961 10.7191 5.74137 13.0893 5.41599 15.6667H2.73199C3.40133 8.92941 9.08666 3.66675 16 3.66675Z" fill="white"/>
</svg>
