<svg width="107" height="22" viewBox="0 0 107 22" fill="none" xmlns="http://www.w3.org/2000/svg">
<path d="M27.728 16.064C27.472 16.064 27.2 16.0427 26.912 16C26.624 15.9467 26.352 15.8453 26.096 15.696C25.84 15.5467 25.632 15.3227 25.472 15.024C25.312 14.7147 25.232 14.2987 25.232 13.776V6.592C25.232 6.13333 25.296 5.75467 25.424 5.456C25.5627 5.14667 25.744 4.90667 25.968 4.736C26.192 4.55467 26.4427 4.42667 26.72 4.352C26.9973 4.26667 27.2747 4.224 27.552 4.224C28.2133 4.23467 28.8267 4.25067 29.392 4.272C29.9573 4.28267 30.4907 4.29867 30.992 4.32C31.504 4.33067 32 4.34667 32.48 4.368V5.392H27.872C27.456 5.392 27.1253 5.504 26.88 5.728C26.6347 5.952 26.512 6.30933 26.512 6.8V9.584L31.776 9.664V10.64L26.512 10.72V13.488C26.512 13.8827 26.576 14.1813 26.704 14.384C26.8427 14.5867 27.024 14.72 27.248 14.784C27.472 14.848 27.7013 14.88 27.936 14.88H32.48V15.904C31.9893 15.936 31.472 15.9627 30.928 15.984C30.3947 16.0053 29.856 16.0213 29.312 16.032C28.7787 16.0427 28.2507 16.0533 27.728 16.064ZM36.8466 16.016C36.356 16.016 35.9453 15.9307 35.6146 15.76C35.284 15.5787 35.0333 15.2907 34.8626 14.896C34.692 14.4907 34.6066 13.9467 34.6066 13.264V3.792H35.8706V13.104C35.8706 13.616 35.9186 14.0053 36.0146 14.272C36.1106 14.528 36.2493 14.7093 36.4306 14.816C36.612 14.912 36.8253 14.976 37.0706 15.008L37.9346 15.104V16.016H36.8466ZM42.5738 16.096C41.6778 16.096 40.9684 15.9627 40.4457 15.696C39.9338 15.4293 39.5658 14.976 39.3418 14.336C39.1178 13.696 39.0058 12.8213 39.0058 11.712C39.0058 10.5813 39.1178 9.70133 39.3418 9.072C39.5764 8.432 39.9551 7.984 40.4778 7.728C41.0004 7.472 41.7044 7.344 42.5898 7.344C43.3471 7.344 43.9604 7.42933 44.4298 7.6C44.9098 7.77067 45.2618 8.064 45.4858 8.48C45.7204 8.88533 45.8378 9.45067 45.8378 10.176C45.8378 10.6773 45.7364 11.0827 45.5338 11.392C45.3418 11.6907 45.0591 11.9093 44.6858 12.048C44.3231 12.176 43.8911 12.24 43.3898 12.24H40.2698C40.2804 12.9333 40.3551 13.4933 40.4938 13.92C40.6324 14.336 40.8831 14.64 41.2458 14.832C41.6191 15.0133 42.1631 15.104 42.8778 15.104H45.6298V15.872C45.1391 15.936 44.6591 15.9893 44.1898 16.032C43.7204 16.0747 43.1818 16.096 42.5738 16.096ZM40.2538 11.408H43.2938C43.7738 11.408 44.1258 11.3227 44.3498 11.152C44.5844 10.9707 44.7018 10.6507 44.7018 10.192C44.7018 9.70133 44.6271 9.32267 44.4778 9.056C44.3391 8.77867 44.1151 8.58667 43.8058 8.48C43.5071 8.36267 43.1018 8.304 42.5898 8.304C41.9924 8.304 41.5231 8.39467 41.1818 8.576C40.8404 8.74667 40.6004 9.056 40.4618 9.504C40.3231 9.952 40.2538 10.5867 40.2538 11.408ZM51.07 16.096C50.59 16.096 50.142 16.032 49.726 15.904C49.31 15.776 48.9473 15.552 48.638 15.232C48.3287 14.912 48.0887 14.4693 47.918 13.904C47.7473 13.3387 47.662 12.6187 47.662 11.744C47.662 10.8587 47.742 10.1333 47.902 9.568C48.062 8.992 48.2913 8.544 48.59 8.224C48.8887 7.904 49.2513 7.68 49.678 7.552C50.1047 7.424 50.5793 7.36 51.102 7.36C51.5287 7.36 51.9927 7.38133 52.494 7.424C52.9953 7.456 53.4753 7.50933 53.934 7.584V8.336H51.438C50.894 8.336 50.4353 8.42667 50.062 8.608C49.6887 8.78933 49.406 9.13067 49.214 9.632C49.022 10.1227 48.926 10.8373 48.926 11.776C48.926 12.6827 49.0273 13.376 49.23 13.856C49.4327 14.336 49.7207 14.6667 50.094 14.848C50.4673 15.0187 50.9207 15.104 51.454 15.104H54.062V15.84C53.8167 15.8827 53.5287 15.9253 53.198 15.968C52.878 16.0107 52.5367 16.0427 52.174 16.064C51.8113 16.0853 51.4433 16.096 51.07 16.096ZM58.6418 16C58.0871 16 57.6284 15.9093 57.2658 15.728C56.9031 15.5467 56.6364 15.2533 56.4658 14.848C56.2951 14.4427 56.2151 13.904 56.2258 13.232L56.2738 8.496H54.9138V7.68L56.2898 7.456L56.4978 5.072H57.4738V7.456H59.9378V8.496H57.4738V13.232C57.4738 13.6053 57.5111 13.904 57.5858 14.128C57.6711 14.352 57.7778 14.5227 57.9058 14.64C58.0444 14.7573 58.1884 14.8427 58.3378 14.896C58.4871 14.9387 58.6311 14.9653 58.7698 14.976L59.8098 15.072V16H58.6418ZM61.6848 16V7.456H62.6448L62.9488 8.944C63.3328 8.48533 63.7594 8.10667 64.2288 7.808C64.7088 7.50933 65.2581 7.36 65.8768 7.36C66.0261 7.36 66.1648 7.36533 66.2928 7.376C66.4314 7.38667 66.5594 7.408 66.6768 7.44V8.736C66.5381 8.71467 66.3888 8.69867 66.2288 8.688C66.0688 8.66667 65.9088 8.656 65.7488 8.656C65.3541 8.656 65.0021 8.704 64.6927 8.8C64.3834 8.896 64.0901 9.04 63.8128 9.232C63.5354 9.424 63.2474 9.65867 62.9488 9.936V16H61.6848ZM68.4705 5.936C68.2998 5.936 68.2145 5.85067 68.2145 5.68V4.432C68.2145 4.26133 68.2998 4.176 68.4705 4.176H69.3665C69.4518 4.176 69.5105 4.20267 69.5425 4.256C69.5852 4.29867 69.6065 4.35733 69.6065 4.432V5.68C69.6065 5.85067 69.5265 5.936 69.3665 5.936H68.4705ZM68.2785 16V7.456H69.5425V16H68.2785ZM75.0856 16.096C74.6056 16.096 74.1576 16.032 73.7416 15.904C73.3256 15.776 72.963 15.552 72.6536 15.232C72.3443 14.912 72.1043 14.4693 71.9336 13.904C71.763 13.3387 71.6776 12.6187 71.6776 11.744C71.6776 10.8587 71.7576 10.1333 71.9176 9.568C72.0776 8.992 72.307 8.544 72.6056 8.224C72.9043 7.904 73.267 7.68 73.6936 7.552C74.1203 7.424 74.595 7.36 75.1176 7.36C75.5443 7.36 76.0083 7.38133 76.5096 7.424C77.011 7.456 77.491 7.50933 77.9496 7.584V8.336H75.4536C74.9096 8.336 74.451 8.42667 74.0776 8.608C73.7043 8.78933 73.4216 9.13067 73.2296 9.632C73.0376 10.1227 72.9416 10.8373 72.9416 11.776C72.9416 12.6827 73.043 13.376 73.2456 13.856C73.4483 14.336 73.7363 14.6667 74.1096 14.848C74.483 15.0187 74.9363 15.104 75.4696 15.104H78.0776V15.84C77.8323 15.8827 77.5443 15.9253 77.2136 15.968C76.8936 16.0107 76.5523 16.0427 76.1896 16.064C75.827 16.0853 75.459 16.096 75.0856 16.096ZM87.2419 16.096C86.7619 16.096 86.3139 16.032 85.8979 15.904C85.4819 15.776 85.1192 15.552 84.8099 15.232C84.5005 14.912 84.2605 14.4693 84.0899 13.904C83.9192 13.3387 83.8339 12.6187 83.8339 11.744C83.8339 10.8587 83.9139 10.1333 84.0739 9.568C84.2339 8.992 84.4632 8.544 84.7619 8.224C85.0605 7.904 85.4232 7.68 85.8499 7.552C86.2765 7.424 86.7512 7.36 87.2739 7.36C87.7005 7.36 88.1645 7.38133 88.6659 7.424C89.1672 7.456 89.6472 7.50933 90.1059 7.584V8.336H87.6099C87.0659 8.336 86.6072 8.42667 86.2339 8.608C85.8605 8.78933 85.5779 9.13067 85.3859 9.632C85.1939 10.1227 85.0979 10.8373 85.0979 11.776C85.0979 12.6827 85.1992 13.376 85.4019 13.856C85.6045 14.336 85.8925 14.6667 86.2659 14.848C86.6392 15.0187 87.0925 15.104 87.6259 15.104H90.2339V15.84C89.9885 15.8827 89.7005 15.9253 89.3699 15.968C89.0499 16.0107 88.7085 16.0427 88.3459 16.064C87.9832 16.0853 87.6152 16.096 87.2419 16.096ZM93.6456 16.096C93.0163 16.096 92.499 15.9093 92.0936 15.536C91.6883 15.1627 91.4856 14.6347 91.4856 13.952V13.344C91.4856 12.672 91.7043 12.128 92.1416 11.712C92.5896 11.296 93.2616 11.088 94.1576 11.088H97.0536V10.032C97.0536 9.68 96.9896 9.38133 96.8616 9.136C96.7443 8.88 96.5256 8.68267 96.2056 8.544C95.8963 8.40533 95.443 8.336 94.8456 8.336H92.1896V7.584C92.563 7.52 92.995 7.46133 93.4856 7.408C93.987 7.35467 94.5736 7.328 95.2456 7.328C95.939 7.31733 96.515 7.40267 96.9736 7.584C97.4323 7.76533 97.7683 8.05333 97.9816 8.448C98.2056 8.832 98.3176 9.33867 98.3176 9.968V16H97.3416L97.1016 15.024C97.059 15.0667 96.9256 15.1413 96.7016 15.248C96.4883 15.3547 96.211 15.4773 95.8696 15.616C95.539 15.744 95.1763 15.856 94.7816 15.952C94.3976 16.048 94.019 16.096 93.6456 16.096ZM94.1736 15.152C94.3656 15.1627 94.5843 15.1413 94.8296 15.088C95.075 15.0347 95.3256 14.976 95.5816 14.912C95.8376 14.8373 96.0723 14.7627 96.2856 14.688C96.5096 14.6133 96.691 14.5493 96.8296 14.496C96.9683 14.4427 97.043 14.416 97.0536 14.416V11.728L94.4456 11.84C93.8376 11.8613 93.4003 12.0107 93.1336 12.288C92.8776 12.5653 92.7496 12.9227 92.7496 13.36V13.744C92.7496 14.0853 92.819 14.3627 92.9576 14.576C93.107 14.7787 93.2883 14.9227 93.5016 15.008C93.7256 15.0933 93.9496 15.1413 94.1736 15.152ZM100.7 16V7.456H101.66L101.964 8.944C102.348 8.48533 102.775 8.10667 103.244 7.808C103.724 7.50933 104.274 7.36 104.892 7.36C105.042 7.36 105.18 7.36533 105.308 7.376C105.447 7.38667 105.575 7.408 105.692 7.44V8.736C105.554 8.71467 105.404 8.69867 105.244 8.688C105.084 8.66667 104.924 8.656 104.764 8.656C104.37 8.656 104.018 8.704 103.708 8.8C103.399 8.896 103.106 9.04 102.828 9.232C102.551 9.424 102.263 9.65867 101.964 9.936V16H100.7Z" fill="#BABEC4"/>
<path d="M10.8333 9.33334H16.6666L9.16665 20.1667V12.6667H3.33331L10.8333 1.83334V9.33334Z" fill="#4177DC"/>
</svg>
