<svg width="870" height="683" viewBox="0 0 870 683" fill="none" xmlns="http://www.w3.org/2000/svg">
<path d="M341.681 428.548C344.432 434.913 347.643 448.044 349.432 452.229M349.432 452.229C361.44 446.266 377.075 439.059 395.903 433.8C414.731 428.542 418.646 427.081 425.647 427.285C442.248 426.447 443.53 426.743 447.164 427.142M349.432 452.229L369.381 491.696M447.164 427.142C448.993 427.004 536.283 380.036 536.283 380.036L604.623 342.491L621.984 336.809M447.164 427.142C445.101 443.067 437.434 454.705 427.211 470.74M685.711 359.648L669.007 344.417L654.175 337.772M558.287 424.351L568.316 407.729L597.637 401.353L637.109 430.29L604.325 487.016L575.803 536.368M558.287 424.351L544.737 428.785L491.387 446.246C487.193 447.879 466.538 459.772 458.722 462.456C450.906 465.141 447.163 467.391 426.119 473.127M558.287 424.351L514.908 500.924M426.119 473.127L369.381 491.696M426.119 473.127L427.211 470.74M369.381 491.696C375.821 494.188 403.76 510.802 403.76 510.802M369.381 491.696L305.207 609.291M403.76 510.802L427.211 470.74M403.76 510.802L428.022 524.94M483.116 557.044L544.331 590.824M483.116 557.044L514.908 500.924M483.116 557.044L451.998 610.924M483.116 557.044L443.438 533.923M544.331 590.824L575.803 536.368M544.331 590.824L631.549 638.172M544.331 590.824L512.214 645.952M514.908 500.924L575.803 536.368M575.803 536.368L636.142 567.286L631.549 638.172M631.549 638.172L587.791 690.671L512.214 645.952M512.214 645.952L451.998 610.924M512.214 645.952L482.728 704.818M451.998 610.924L411.45 590.158M451.998 610.924L427.713 669.928M411.45 590.158L443.438 533.923M411.45 590.158L400.55 584.067M443.438 533.923L428.022 524.94M428.022 524.94L400.55 584.067M400.55 584.067L372.924 640.024M372.924 640.024L427.713 669.928M372.924 640.024L305.207 609.291M427.713 669.928L482.728 704.818M482.728 704.818L498.255 712.155M305.207 609.291L277.732 652.781L223.036 626.066L252.033 574.259M338.885 427.164C370.624 416.259 386.27 411.185 411.712 403.328L525.377 336.69L592.102 292.774L627.297 314.372M627.297 314.372L621.984 336.809M627.297 314.372L639.344 331.127L621.984 336.809M337.448 500.119L214.463 512.501L199.652 541.727L252.033 574.259M271.433 586.308L252.033 574.259" stroke="url(#paint0_linear_122_180)" stroke-opacity="0.4" stroke-width="5"/>
<path d="M346.119 439.193L383.422 428.797M396.264 433.689L403.602 447.754M443.351 428.797L403.602 447.754M479.43 412.286L469.035 396.386L511.229 380.487L539.971 407.394L458.639 447.754M417.667 516.244L428.674 499.733L421.336 482.611L509.562 456.621M423.782 448.977L421.336 448.829M403.602 447.754L421.336 448.829M360.184 467.323L389.537 456.621L421.336 460.596L421.336 448.829M389.537 505.849L368.745 549.878L388.314 557.828L410.329 518.079M417.667 525.417L403.602 549.878M497.165 475.884L519.791 488.726M497.165 475.884L521.959 437.358M497.165 475.884L476.984 509.518M423.782 507.072L469.035 533.979M451.912 507.072L497.165 533.979M368.745 480.165L383.422 474.05M590.727 401.89L580.331 422.07M566.878 493.007L549.144 482.611L569.935 442.25M566.878 493.007L590.727 448.977M566.878 493.007C561.986 518.691 576.998 513.236 572.382 512.575M566.878 493.007L641.042 532.002M590.727 448.977L569.935 442.25M590.727 448.977L605.404 456.621M569.935 442.25L580.331 422.07M580.331 422.07L617.634 437.358L605.404 456.621M605.404 456.621L590.727 482.611L576.153 475.884M513.064 570.058C514.532 568.591 525.906 549.063 531.41 539.482L561.374 554.77L549.144 578.008L503.891 554.77M428.674 554.77L445.797 563.332M445.797 563.332L445.797 547.432L464.142 557.828L445.797 592.073L445.797 563.332ZM445.797 563.332L431.732 583.512M494.718 565.778L476.984 600.634M476.984 600.634L503.891 614.088L494.718 586.569M476.984 600.634L469.035 609.807L503.891 629.987L517.345 600.634L494.718 586.569M476.984 600.634L494.718 586.569M476.984 600.634L464.142 595.131M494.718 586.569L473.927 573.116C449.164 565.02 436.656 552.293 406.66 575.349M326.55 578.008C336.089 586.511 342.809 590.585 360.184 595.131L348.565 609.807C345.227 615.753 342.838 618.455 315.543 595.131L326.55 578.008ZM326.55 578.008C380.168 587.547 396.178 586.24 406.66 575.349M406.66 575.349C415.465 595.577 412.775 612.457 410.329 618.368L376.695 604.303L372.414 609.807L403.602 623.261L393.818 650.167L344.284 692.362L310.651 656.894M310.651 656.894L295.974 641.606M310.651 656.894L295.974 673.405L279.463 663.621L295.974 641.606M295.974 641.606C295.974 641.606 294.751 625.707 310.651 623.261C326.55 620.814 333.889 636.102 333.889 636.102C334.2 642.397 328.707 644.373 295.974 641.606ZM279.463 533.979L330.831 554.77L277.629 652.002L268.456 650.167L363.242 480.165L343.061 426.351L250.11 471.603L256.226 482.611L368.745 488.726M204.858 482.611L229.93 511.352L247.053 518.079L238.899 530.309M238.899 530.309L233.599 538.259L221.369 533.979L225.65 525.417L238.899 530.309ZM229.93 561.497C229.93 561.497 221.369 567.001 221.369 578.008C221.369 589.015 233.599 604.303 233.599 604.303L225.65 623.261C225.65 623.261 215.865 629.376 214.031 618.368C212.196 607.361 241.549 569.447 241.549 569.447M470.869 658.117L459.25 668.915M379.141 713.154L423.782 746.176L451.912 714.377L393.818 677.686L380.976 692.362L410.329 714.377L459.25 668.915M379.141 713.154L417.667 677.686L393.818 663.621L360.184 699.701L379.141 713.154ZM445.797 663.621L459.25 641.606L489.826 658.117L469.035 677.686M469.035 677.686L459.25 668.915M469.035 677.686L480.042 689.305L524.683 660.466M524.683 660.466L549.144 644.664L577.274 663.621L541.194 694.808L507.56 668.915L524.683 660.466ZM524.683 660.466L541.194 680.743L565.655 708.262L622.526 634.268L600.511 623.261L620.692 598.188M585.223 614.088L603.569 586.569L588.893 578.008L604.792 552.936" stroke="url(#paint1_linear_122_180)" stroke-opacity="0.4" stroke-width="2"/>
<g filter="url(#filter0_i_122_180)">
<path d="M461.686 360.397C603.05 269.002 580.38 281.193 642.512 231.598L642.512 100.262C605.596 130.863 510.974 203.369 496.263 209.402C481.553 215.435 351.836 251.808 269.151 276.098L104.407 319.202L167.558 490.927C277.366 442.904 335.977 417.705 461.686 360.397Z" fill="#054ACA" fill-opacity="0.4"/>
</g>
<path d="M252.626 272.871L235.785 278.544L75.307 315.933L77.6836 236.306L224.078 185.526L252.626 272.871ZM252.626 272.871L354.251 238.634L358.897 237.069M412.903 218.874L497.687 190.311L522.427 173.276M412.903 218.874L393.039 170.435L355.529 140.212L310.079 150.259L331.021 181.988L341.23 206.883L358.897 237.069M412.903 218.874L358.897 237.069M522.427 173.276L599.737 120.041L535.83 57.6823L443.313 114.128C466.694 131.389 515.251 167.382 522.427 173.276Z" stroke="url(#paint2_linear_122_180)" stroke-opacity="0.5" stroke-width="5"/>
<path d="M202.411 222.102L242.771 209.872L262.34 266.132L231.153 280.197L222.591 260.016L273.959 190.303L328.384 178.684L335.722 193.972L383.421 184.799L395.04 206.814L407.882 202.534L403.303 193.972M403.303 193.972L393.817 176.238L424.393 170.734L433.566 190.303L403.303 193.972ZM415.22 181.742L511.229 184.799" stroke="#054ACA" stroke-opacity="0.2" stroke-width="2"/>
<path d="M374.304 637.496L428.118 525.588L370.023 491.954L350.455 452.205L370.023 442.421" stroke="#054ACA" stroke-opacity="0.3" stroke-width="2"/>
<g filter="url(#filter1_di_122_180)">
<circle cx="366.611" cy="490.837" r="14.2116" fill="#054ACA"/>
</g>
<circle cx="366.611" cy="490.837" r="19.5923" stroke="white"/>
<path d="M547.931 155.149L496.966 190.433L357.79 236.498L341.128 207.585L328.876 178.181L282.811 187.983" stroke="#0059FF" stroke-width="4" stroke-linecap="round"/>
<circle cx="550.382" cy="152.208" r="21.5625" fill="#0059FF" fill-opacity="0.25"/>
<g filter="url(#filter2_d_122_180)">
<path d="M540.287 162.535C539.431 162.784 538.702 161.873 539.132 161.092L550.915 139.712C551.351 138.92 552.533 139.069 552.759 139.946L555.227 149.524C555.299 149.802 555.487 150.036 555.743 150.166L563.348 154.03C564.156 154.441 564.045 155.629 563.174 155.882L540.287 162.535Z" fill="white"/>
</g>
<path d="M300.933 189.453C300.933 204.333 288.87 216.396 273.99 216.396C259.11 216.396 247.047 204.333 247.047 189.453C247.047 174.572 259.11 162.51 273.99 162.51C288.87 162.51 300.933 174.572 300.933 189.453Z" fill="#034EDA" fill-opacity="0.33" stroke="white"/>
<g filter="url(#filter3_d_122_180)">
<circle cx="273.5" cy="188.963" r="14.2116" fill="#054ACA"/>
</g>
<defs>
<filter id="filter0_i_122_180" x="104.407" y="100.262" width="538.105" height="394.664" filterUnits="userSpaceOnUse" color-interpolation-filters="sRGB">
<feFlood flood-opacity="0" result="BackgroundImageFix"/>
<feBlend mode="normal" in="SourceGraphic" in2="BackgroundImageFix" result="shape"/>
<feColorMatrix in="SourceAlpha" type="matrix" values="0 0 0 0 0 0 0 0 0 0 0 0 0 0 0 0 0 0 127 0" result="hardAlpha"/>
<feOffset dy="4"/>
<feGaussianBlur stdDeviation="2"/>
<feComposite in2="hardAlpha" operator="arithmetic" k2="-1" k3="1"/>
<feColorMatrix type="matrix" values="0 0 0 0 0 0 0 0 0 0 0 0 0 0 0 0 0 0 0.25 0"/>
<feBlend mode="normal" in2="shape" result="effect1_innerShadow_122_180"/>
</filter>
<filter id="filter1_di_122_180" x="304.399" y="432.625" width="124.423" height="124.423" filterUnits="userSpaceOnUse" color-interpolation-filters="sRGB">
<feFlood flood-opacity="0" result="BackgroundImageFix"/>
<feColorMatrix in="SourceAlpha" type="matrix" values="0 0 0 0 0 0 0 0 0 0 0 0 0 0 0 0 0 0 127 0" result="hardAlpha"/>
<feOffset dy="4"/>
<feGaussianBlur stdDeviation="24"/>
<feComposite in2="hardAlpha" operator="out"/>
<feColorMatrix type="matrix" values="0 0 0 0 0.0211112 0 0 0 0 0.290806 0 0 0 0 0.791667 0 0 0 1 0"/>
<feBlend mode="normal" in2="BackgroundImageFix" result="effect1_dropShadow_122_180"/>
<feBlend mode="normal" in="SourceGraphic" in2="effect1_dropShadow_122_180" result="shape"/>
<feColorMatrix in="SourceAlpha" type="matrix" values="0 0 0 0 0 0 0 0 0 0 0 0 0 0 0 0 0 0 127 0" result="hardAlpha"/>
<feOffset dy="4"/>
<feGaussianBlur stdDeviation="2"/>
<feComposite in2="hardAlpha" operator="arithmetic" k2="-1" k3="1"/>
<feColorMatrix type="matrix" values="0 0 0 0 0 0 0 0 0 0.177917 0 0 0 0 0.508333 0 0 0 1 0"/>
<feBlend mode="normal" in2="shape" result="effect2_innerShadow_122_180"/>
</filter>
<filter id="filter2_d_122_180" x="528.005" y="126.195" width="46.8903" height="45.382" filterUnits="userSpaceOnUse" color-interpolation-filters="sRGB">
<feFlood flood-opacity="0" result="BackgroundImageFix"/>
<feColorMatrix in="SourceAlpha" type="matrix" values="0 0 0 0 0 0 0 0 0 0 0 0 0 0 0 0 0 0 127 0" result="hardAlpha"/>
<feOffset dy="-2"/>
<feGaussianBlur stdDeviation="5.5"/>
<feComposite in2="hardAlpha" operator="out"/>
<feColorMatrix type="matrix" values="0 0 0 0 1 0 0 0 0 1 0 0 0 0 1 0 0 0 0.57 0"/>
<feBlend mode="normal" in2="BackgroundImageFix" result="effect1_dropShadow_122_180"/>
<feBlend mode="normal" in="SourceGraphic" in2="effect1_dropShadow_122_180" result="shape"/>
</filter>
<filter id="filter3_d_122_180" x="211.288" y="130.751" width="124.423" height="124.423" filterUnits="userSpaceOnUse" color-interpolation-filters="sRGB">
<feFlood flood-opacity="0" result="BackgroundImageFix"/>
<feColorMatrix in="SourceAlpha" type="matrix" values="0 0 0 0 0 0 0 0 0 0 0 0 0 0 0 0 0 0 127 0" result="hardAlpha"/>
<feOffset dy="4"/>
<feGaussianBlur stdDeviation="24"/>
<feComposite in2="hardAlpha" operator="out"/>
<feColorMatrix type="matrix" values="0 0 0 0 0.0211112 0 0 0 0 0.290806 0 0 0 0 0.791667 0 0 0 1 0"/>
<feBlend mode="normal" in2="BackgroundImageFix" result="effect1_dropShadow_122_180"/>
<feBlend mode="normal" in="SourceGraphic" in2="effect1_dropShadow_122_180" result="shape"/>
</filter>
<linearGradient id="paint0_linear_122_180" x1="414.055" y1="351.046" x2="531.264" y2="709.171" gradientUnits="userSpaceOnUse">
<stop stop-color="#054ACA"/>
<stop offset="1" stop-color="#054ACA" stop-opacity="0.05"/>
</linearGradient>
<linearGradient id="paint1_linear_122_180" x1="413.692" y1="380.487" x2="413.692" y2="746.176" gradientUnits="userSpaceOnUse">
<stop stop-color="#054ACA"/>
<stop offset="1" stop-color="#054ACA" stop-opacity="0.05"/>
</linearGradient>
<linearGradient id="paint2_linear_122_180" x1="306.547" y1="142.454" x2="350.863" y2="250.52" gradientUnits="userSpaceOnUse">
<stop stop-color="#054ACA" stop-opacity="0"/>
<stop offset="1" stop-color="#054ACA"/>
</linearGradient>
</defs>
</svg>
