<svg width="20" height="20" viewBox="0 0 20 20" fill="none" xmlns="http://www.w3.org/2000/svg">
<path d="M6.66669 4.16667C6.66669 3.28261 7.01788 2.43477 7.643 1.80965C8.26812 1.18453 9.11597 0.833336 10 0.833336C10.8841 0.833336 11.7319 1.18453 12.357 1.80965C12.9822 2.43477 13.3334 3.28261 13.3334 4.16667V8.54584C14.3525 9.25548 15.1186 10.2719 15.5201 11.4471C15.9216 12.6222 15.9376 13.8949 15.5657 15.0798C15.1938 16.2647 14.4534 17.3 13.4524 18.035C12.4514 18.77 11.2419 19.1663 10 19.1663C8.75814 19.1663 7.54866 18.77 6.54763 18.035C5.54661 17.3 4.80627 16.2647 4.43438 15.0798C4.06249 13.8949 4.07846 12.6222 4.47996 11.4471C4.88146 10.2719 5.64753 9.25548 6.66669 8.54584V4.16667ZM7.62002 9.9125C6.89183 10.4192 6.34439 11.1452 6.0574 11.9846C5.77041 12.8241 5.75884 13.7332 6.02439 14.5797C6.28994 15.4262 6.81873 16.1658 7.5338 16.6909C8.24886 17.2161 9.11286 17.4992 10 17.4992C10.8872 17.4992 11.7512 17.2161 12.4662 16.6909C13.1813 16.1658 13.7101 15.4262 13.9757 14.5797C14.2412 13.7332 14.2296 12.8241 13.9426 11.9846C13.6557 11.1452 13.1082 10.4192 12.38 9.9125L11.6667 9.415V4.16667C11.6667 3.72464 11.4911 3.30072 11.1785 2.98816C10.866 2.6756 10.442 2.5 10 2.5C9.55799 2.5 9.13407 2.6756 8.82151 2.98816C8.50895 3.30072 8.33335 3.72464 8.33335 4.16667V9.415L7.62002 9.9125ZM6.66669 13.3333H13.3334C13.3334 14.2174 12.9822 15.0652 12.357 15.6904C11.7319 16.3155 10.8841 16.6667 10 16.6667C9.11597 16.6667 8.26812 16.3155 7.643 15.6904C7.01788 15.0652 6.66669 14.2174 6.66669 13.3333Z" fill="white"/>
</svg>
