<svg width="17" height="16" viewBox="0 0 17 16" fill="none" xmlns="http://www.w3.org/2000/svg">
<path d="M8.50001 1.33337C12.182 1.33337 15.1667 4.31804 15.1667 8.00004C15.1667 11.682 12.182 14.6667 8.50001 14.6667C4.81801 14.6667 1.83334 11.682 1.83334 8.00004C1.83334 4.31804 4.81801 1.33337 8.50001 1.33337ZM8.50001 2.66671C7.08552 2.66671 5.72897 3.22861 4.72877 4.2288C3.72858 5.229 3.16668 6.58555 3.16668 8.00004C3.16668 9.41453 3.72858 10.7711 4.72877 11.7713C5.72897 12.7715 7.08552 13.3334 8.50001 13.3334C9.9145 13.3334 11.2711 12.7715 12.2712 11.7713C13.2714 10.7711 13.8333 9.41453 13.8333 8.00004C13.8333 6.58555 13.2714 5.229 12.2712 4.2288C11.2711 3.22861 9.9145 2.66671 8.50001 2.66671V2.66671ZM11.0553 4.89137C11.1318 4.83774 11.2248 4.81281 11.3178 4.82098C11.4109 4.82915 11.4981 4.8699 11.564 4.93604C11.6298 5.00187 11.6702 5.0889 11.6779 5.18168C11.6856 5.27445 11.6601 5.36694 11.606 5.44271C10.1527 7.47337 9.35268 8.56137 9.20734 8.70737C9.01962 8.89472 8.76523 8.99994 8.50001 8.99994C8.23479 8.99994 7.9804 8.89472 7.79268 8.70737C7.60533 8.51965 7.50011 8.26526 7.50011 8.00004C7.50011 7.73482 7.60533 7.48044 7.79268 7.29271C8.04201 7.04404 9.12934 6.24337 11.0553 4.89137ZM12.1667 7.33337C12.3435 7.33337 12.5131 7.40361 12.6381 7.52864C12.7631 7.65366 12.8333 7.82323 12.8333 8.00004C12.8333 8.17685 12.7631 8.34642 12.6381 8.47145C12.5131 8.59647 12.3435 8.66671 12.1667 8.66671C11.9899 8.66671 11.8203 8.59647 11.6953 8.47145C11.5702 8.34642 11.5 8.17685 11.5 8.00004C11.5 7.82323 11.5702 7.65366 11.6953 7.52864C11.8203 7.40361 11.9899 7.33337 12.1667 7.33337ZM4.83334 7.33337C5.01015 7.33337 5.17972 7.40361 5.30475 7.52864C5.42977 7.65366 5.50001 7.82323 5.50001 8.00004C5.50001 8.17685 5.42977 8.34642 5.30475 8.47145C5.17972 8.59647 5.01015 8.66671 4.83334 8.66671C4.65653 8.66671 4.48696 8.59647 4.36194 8.47145C4.23691 8.34642 4.16668 8.17685 4.16668 8.00004C4.16668 7.82323 4.23691 7.65366 4.36194 7.52864C4.48696 7.40361 4.65653 7.33337 4.83334 7.33337ZM6.37868 4.93604C6.50368 5.06122 6.57384 5.23094 6.57371 5.40785C6.57359 5.58475 6.50319 5.75437 6.37801 5.87937C6.25283 6.00438 6.08311 6.07454 5.90621 6.07441C5.7293 6.07429 5.55968 6.00389 5.43468 5.87871C5.37278 5.81672 5.3237 5.74316 5.29023 5.6622C5.25677 5.58125 5.23958 5.4945 5.23964 5.4069C5.2397 5.31931 5.25702 5.23258 5.2906 5.15167C5.32417 5.07077 5.37336 4.99727 5.43534 4.93537C5.56053 4.81037 5.73024 4.74021 5.90715 4.74034C5.99475 4.7404 6.08147 4.75771 6.16238 4.79129C6.24328 4.82487 6.31678 4.87406 6.37868 4.93604V4.93604ZM8.50001 3.66671C8.67682 3.66671 8.84639 3.73695 8.97141 3.86197C9.09644 3.98699 9.16668 4.15656 9.16668 4.33337C9.16668 4.51019 9.09644 4.67975 8.97141 4.80478C8.84639 4.9298 8.67682 5.00004 8.50001 5.00004C8.3232 5.00004 8.15363 4.9298 8.02861 4.80478C7.90358 4.67975 7.83334 4.51019 7.83334 4.33337C7.83334 4.15656 7.90358 3.98699 8.02861 3.86197C8.15363 3.73695 8.3232 3.66671 8.50001 3.66671V3.66671Z" fill="white"/>
</svg>
